<mxfile host="app.diagrams.net" modified="2024-07-25T16:07:29.629Z" agent="Mozilla/5.0 (X11; Linux x86_64) AppleWebKit/537.36 (KHTML, like Gecko) Chrome/126.0.0.0 Safari/537.36" etag="x_Uvn8OPVLJtPeu79Cwe" version="24.7.3" type="device">
  <diagram name="Page-1" id="A0i0j6UEn0yY0MXuu-33">
    <mxGraphModel dx="1009" dy="719" grid="1" gridSize="10" guides="1" tooltips="1" connect="1" arrows="1" fold="1" page="1" pageScale="1" pageWidth="850" pageHeight="1100" math="0" shadow="0">
      <root>
        <mxCell id="0" />
        <mxCell id="1" parent="0" />
        <mxCell id="tCCbbVo5uXIe811LhBTm-4" style="edgeStyle=orthogonalEdgeStyle;rounded=0;orthogonalLoop=1;jettySize=auto;html=1;exitX=0.5;exitY=1;exitDx=0;exitDy=0;entryX=0.5;entryY=0;entryDx=0;entryDy=0;" edge="1" parent="1" source="tCCbbVo5uXIe811LhBTm-2" target="tCCbbVo5uXIe811LhBTm-3">
          <mxGeometry relative="1" as="geometry" />
        </mxCell>
        <mxCell id="tCCbbVo5uXIe811LhBTm-2" value="Object" style="rounded=1;whiteSpace=wrap;html=1;fillColor=#f5f5f5;strokeColor=#666666;fontColor=#333333;shadow=1;" vertex="1" parent="1">
          <mxGeometry x="320" y="80" width="120" height="40" as="geometry" />
        </mxCell>
        <mxCell id="tCCbbVo5uXIe811LhBTm-6" style="edgeStyle=orthogonalEdgeStyle;rounded=0;orthogonalLoop=1;jettySize=auto;html=1;exitX=0.5;exitY=1;exitDx=0;exitDy=0;" edge="1" parent="1" source="tCCbbVo5uXIe811LhBTm-3">
          <mxGeometry relative="1" as="geometry">
            <mxPoint x="380" y="240" as="targetPoint" />
          </mxGeometry>
        </mxCell>
        <mxCell id="tCCbbVo5uXIe811LhBTm-3" value="Throwable" style="rounded=1;whiteSpace=wrap;html=1;fillColor=#f5f5f5;strokeColor=#666666;fontColor=#333333;shadow=1;" vertex="1" parent="1">
          <mxGeometry x="320" y="160" width="120" height="40" as="geometry" />
        </mxCell>
        <mxCell id="tCCbbVo5uXIe811LhBTm-5" value="" style="endArrow=none;html=1;rounded=0;" edge="1" parent="1">
          <mxGeometry width="50" height="50" relative="1" as="geometry">
            <mxPoint x="240" y="240" as="sourcePoint" />
            <mxPoint x="560" y="240" as="targetPoint" />
          </mxGeometry>
        </mxCell>
        <mxCell id="tCCbbVo5uXIe811LhBTm-7" value="Exception" style="rounded=1;whiteSpace=wrap;html=1;fillColor=#f5f5f5;strokeColor=#666666;fontColor=#333333;shadow=1;" vertex="1" parent="1">
          <mxGeometry x="180" y="280" width="120" height="40" as="geometry" />
        </mxCell>
        <mxCell id="tCCbbVo5uXIe811LhBTm-8" value="" style="endArrow=classic;html=1;rounded=0;entryX=0.5;entryY=0;entryDx=0;entryDy=0;" edge="1" parent="1" target="tCCbbVo5uXIe811LhBTm-7">
          <mxGeometry width="50" height="50" relative="1" as="geometry">
            <mxPoint x="240" y="240" as="sourcePoint" />
            <mxPoint x="520" y="350" as="targetPoint" />
          </mxGeometry>
        </mxCell>
        <mxCell id="tCCbbVo5uXIe811LhBTm-9" value="Error" style="rounded=1;whiteSpace=wrap;html=1;fillColor=#f5f5f5;strokeColor=#666666;fontColor=#333333;shadow=1;" vertex="1" parent="1">
          <mxGeometry x="499" y="280" width="120" height="40" as="geometry" />
        </mxCell>
        <mxCell id="tCCbbVo5uXIe811LhBTm-10" value="" style="endArrow=classic;html=1;rounded=0;entryX=0.5;entryY=0;entryDx=0;entryDy=0;" edge="1" parent="1" target="tCCbbVo5uXIe811LhBTm-9">
          <mxGeometry width="50" height="50" relative="1" as="geometry">
            <mxPoint x="559" y="240" as="sourcePoint" />
            <mxPoint x="839" y="350" as="targetPoint" />
          </mxGeometry>
        </mxCell>
        <mxCell id="tCCbbVo5uXIe811LhBTm-11" value="Checked Exceptions&lt;div&gt;Ejemplo: IO o Excepciones en tiempo de compilaciÃ³n&lt;/div&gt;" style="rounded=1;whiteSpace=wrap;html=1;fillColor=#f5f5f5;strokeColor=#666666;fontColor=#333333;shadow=1;" vertex="1" parent="1">
          <mxGeometry x="279" y="360" width="141" height="70" as="geometry" />
        </mxCell>
        <mxCell id="tCCbbVo5uXIe811LhBTm-12" value="Unchecked Exceptions&lt;div&gt;Ejemplo: Runtime o Null Pointer Exception&lt;/div&gt;" style="rounded=1;whiteSpace=wrap;html=1;fillColor=#f5f5f5;strokeColor=#666666;fontColor=#333333;shadow=1;" vertex="1" parent="1">
          <mxGeometry x="281" y="462" width="141" height="60" as="geometry" />
        </mxCell>
        <mxCell id="tCCbbVo5uXIe811LhBTm-13" value="" style="endArrow=none;html=1;rounded=0;entryX=0.5;entryY=1;entryDx=0;entryDy=0;" edge="1" parent="1" target="tCCbbVo5uXIe811LhBTm-7">
          <mxGeometry width="50" height="50" relative="1" as="geometry">
            <mxPoint x="240" y="490" as="sourcePoint" />
            <mxPoint x="480" y="470" as="targetPoint" />
          </mxGeometry>
        </mxCell>
        <mxCell id="tCCbbVo5uXIe811LhBTm-14" value="" style="endArrow=classic;html=1;rounded=0;" edge="1" parent="1">
          <mxGeometry width="50" height="50" relative="1" as="geometry">
            <mxPoint x="241" y="390" as="sourcePoint" />
            <mxPoint x="281" y="390" as="targetPoint" />
          </mxGeometry>
        </mxCell>
        <mxCell id="tCCbbVo5uXIe811LhBTm-15" value="" style="endArrow=classic;html=1;rounded=0;" edge="1" parent="1">
          <mxGeometry width="50" height="50" relative="1" as="geometry">
            <mxPoint x="241" y="490" as="sourcePoint" />
            <mxPoint x="281" y="490" as="targetPoint" />
          </mxGeometry>
        </mxCell>
        <mxCell id="tCCbbVo5uXIe811LhBTm-16" value="Virtual Machine Error" style="rounded=1;whiteSpace=wrap;html=1;fillColor=#f5f5f5;strokeColor=#666666;fontColor=#333333;shadow=1;" vertex="1" parent="1">
          <mxGeometry x="600" y="359" width="141" height="41" as="geometry" />
        </mxCell>
        <mxCell id="tCCbbVo5uXIe811LhBTm-17" value="Assertion Error" style="rounded=1;whiteSpace=wrap;html=1;fillColor=#f5f5f5;strokeColor=#666666;fontColor=#333333;shadow=1;" vertex="1" parent="1">
          <mxGeometry x="601" y="438" width="141" height="41" as="geometry" />
        </mxCell>
        <mxCell id="tCCbbVo5uXIe811LhBTm-18" value="" style="endArrow=none;html=1;rounded=0;entryX=0.5;entryY=1;entryDx=0;entryDy=0;" edge="1" parent="1">
          <mxGeometry width="50" height="50" relative="1" as="geometry">
            <mxPoint x="560" y="460" as="sourcePoint" />
            <mxPoint x="559" y="320" as="targetPoint" />
          </mxGeometry>
        </mxCell>
        <mxCell id="tCCbbVo5uXIe811LhBTm-19" value="" style="endArrow=classic;html=1;rounded=0;" edge="1" parent="1">
          <mxGeometry width="50" height="50" relative="1" as="geometry">
            <mxPoint x="559" y="378" as="sourcePoint" />
            <mxPoint x="599" y="378" as="targetPoint" />
          </mxGeometry>
        </mxCell>
        <mxCell id="tCCbbVo5uXIe811LhBTm-20" value="" style="endArrow=classic;html=1;rounded=0;" edge="1" parent="1">
          <mxGeometry width="50" height="50" relative="1" as="geometry">
            <mxPoint x="561" y="459" as="sourcePoint" />
            <mxPoint x="601" y="459" as="targetPoint" />
          </mxGeometry>
        </mxCell>
      </root>
    </mxGraphModel>
  </diagram>
</mxfile>
